/* XPM */
static char * left_xpm[] = {
"9 9 2 1",
" 	c None",
".	c #062457",
"       ..",
"     ....",
"   ......",
" ........",
".........",
" ........",
"   ......",
"     ....",
"       .."};
