/* XPM */
static char * udarrow_xpm[] = {
"24 48 3 1",
" 	c None",
".	c #000000",
"+	c #464646",
"                        ",
"            .           ",
"           ...          ",
"           ...          ",
"          .....         ",
"          .....         ",
"         .......        ",
"         .......        ",
"        .........       ",
"        .........       ",
"       ...........      ",
"           ...          ",
"           ...          ",
"           ...          ",
"           ...          ",
"           ...          ",
"           ...          ",
"           ...          ",
"           ...          ",
"           ...          ",
"           ...          ",
"           ...          ",
"           ...          ",
"           ...          ",
"           ...          ",
"       ...........      ",
"        .........       ",
"        .........       ",
"         .......+       ",
"         .......        ",
"          .....         ",
"          .....         ",
"           ...          ",
"           ...          ",
"            .           ",
"                        ",
"                        ",
"                        ",
"                        ",
"                        ",
"                        ",
"                        ",
"                        ",
"                        ",
"                        ",
"                        ",
"                        ",
"                        "};
