/* XPM */
static char * up_xpm[] = {
"9 9 2 1",
" 	c None",
".	c #062457",
"    .    ",
"   ...   ",
"   ...   ",
"  .....  ",
"  .....  ",
" ....... ",
" ....... ",
".........",
"........."};
