/* XPM */
static char * rlarrow_xpm[] = {
"36 21 2 1",
" 	c None",
".	c #000000",
"                                    ",
"                                    ",
"                                    ",
"                                    ",
"                                    ",
"            .          .            ",
"          ...          ..           ",
"        .....          .....        ",
"      .......          .......      ",
"    ............................    ",
"   ..............................   ",
"    ............................    ",
"      .......          .......      ",
"        .....          .....        ",
"          ...          ...          ",
"                       .            ",
"                                    ",
"                                    ",
"                                    ",
"                                    ",
"                                    "};
